<svg xmlns="http://www.w3.org/2000/svg" width="2376.25" height="1039" viewBox="0 0 2376.25 1039">
  <g id="Group_184" data-name="Group 184" transform="translate(456.25 -207)">
    <path id="Path_1792" data-name="Path 1792" d="M10458,597s-271.5,40.25-362,179,80,352,80,352,98.364,256.1,176,344c40.662,46.037,106,64,106,64" transform="translate(-8538 -390)" fill="#477dee" opacity="0.79"/>
    <g id="Path_1793" data-name="Path 1793" transform="translate(-456.25 390)" fill="#18b5b5" opacity="0.76">
      <path d="M 395.6108093261719 855.5 C 382.1344909667969 855.5 368.5438232421875 854.757568359375 355.2164611816406 853.293212890625 C 342.0821533203125 851.8502197265625 328.8842468261719 849.6710815429688 315.9894714355469 846.8163452148438 C 303.2615966796875 843.9986572265625 290.5230407714844 840.4550170898438 278.127685546875 836.2841186523438 C 265.8710327148438 832.1597900390625 253.6584777832031 827.3239135742188 241.8292541503906 821.9110107421875 C 218.4183654785156 811.1983032226562 195.8381500244141 797.9387817382812 174.7161407470703 782.5006713867188 C 153.7938079833984 767.2085571289062 134.1192474365234 749.6465454101562 116.2389221191406 730.3023071289062 C 98.35791778564453 710.9574584960938 82.12403106689453 689.6708984375 67.98825073242188 667.0339965820312 C 53.71647644042969 644.179443359375 41.45847702026367 619.7468872070312 31.5548095703125 594.4149169921875 C 21.46769905090332 568.614013671875 13.72069835662842 541.6136474609375 8.528697967529297 514.1640014648438 C 5.889364719390869 500.2097778320312 3.874587059020996 485.9274291992188 2.540364980697632 471.7137756347656 C 1.186475992202759 457.2912292480469 0.5000315308570862 442.5837707519531 0.5000315308570862 428 C 0.5000315308570862 413.4162292480469 1.186475992202759 398.7087707519531 2.540364980697632 384.2862243652344 C 3.874587059020996 370.0725708007812 5.889364719390869 355.7902221679688 8.528697967529297 341.8359985351562 C 13.72069835662842 314.3863220214844 21.46769905090332 287.385986328125 31.5548095703125 261.5851135253906 C 41.45847702026367 236.2531127929688 53.71647644042969 211.820556640625 67.98825073242188 188.9660034179688 C 82.12403106689453 166.3291168212891 98.35791778564453 145.0425567626953 116.2389221191406 125.6976699829102 C 134.1192474365234 106.3534469604492 153.7938079833984 88.79144287109375 174.7161407470703 73.49933624267578 C 195.8381500244141 58.06122207641602 218.4183654785156 44.80166625976562 241.8292541503906 34.0890007019043 C 253.6584777832031 28.67611122131348 265.8710327148438 23.8402214050293 278.127685546875 19.71588897705078 C 290.5230407714844 15.54500007629395 303.2615966796875 12.00133323669434 315.9894714355469 9.183666229248047 C 328.8842468261719 6.328888893127441 342.0821533203125 4.149777889251709 355.2164611816406 2.706777811050415 C 368.5438232421875 1.242444396018982 382.1344909667969 0.5 395.6108093261719 0.5 C 409.0871276855469 0.5 422.6777954101562 1.242444396018982 436.0051574707031 2.706777811050415 C 449.1394653320312 4.149777889251709 462.3373718261719 6.328888893127441 475.2321472167969 9.183666229248047 C 487.9600219726562 12.00133323669434 500.6985778808594 15.54500007629395 513.0939331054688 19.71588897705078 C 525.3505859375 23.8402214050293 537.5631713867188 28.67611122131348 549.3923950195312 34.0890007019043 C 572.8032836914062 44.80166625976562 595.3834838867188 58.06122207641602 616.5054931640625 73.49933624267578 C 637.4277954101562 88.79144287109375 657.1023559570312 106.3534469604492 674.9827270507812 125.6976699829102 C 692.8637084960938 145.0425567626953 709.0975952148438 166.3291168212891 723.2333374023438 188.9660034179688 C 737.505126953125 211.820556640625 749.7631225585938 236.2531127929688 759.6668090820312 261.5851135253906 C 769.75390625 287.385986328125 777.5009155273438 314.3863220214844 782.6929321289062 341.8359985351562 C 785.332275390625 355.7902221679688 787.3470458984375 370.0725708007812 788.6812744140625 384.2862243652344 C 790.03515625 398.7087707519531 790.7215576171875 413.4162292480469 790.7215576171875 428 C 790.7215576171875 440.839111328125 789.4744873046875 453.5362243652344 787.014892578125 465.7384338378906 C 784.6753540039062 477.3453369140625 781.1619262695312 488.8819885253906 776.5723876953125 500.0278930664062 C 772.2411499023438 510.5465698242188 766.8018188476562 521.0782470703125 760.4054565429688 531.330322265625 C 754.4375610351562 540.8958740234375 747.4120483398438 550.5753173828125 739.5240478515625 560.0999755859375 C 708.97412109375 596.9883422851562 668.39111328125 628.4254150390625 629.1443481445312 658.8273315429688 C 607.7511596679688 675.3992309570312 587.5443725585938 691.0521240234375 568.7939453125 707.5597534179688 C 558.2545776367188 716.8386840820312 548.13671875 727.6527709960938 537.862060546875 740.6201171875 C 528.7801513671875 752.0819702148438 520.6693725585938 763.801025390625 512.8255615234375 775.1340942382812 C 498.05224609375 796.4795532226562 484.0982666015625 816.64111328125 466.1834716796875 831.387451171875 C 456.6251525878906 839.2553100585938 446.668701171875 845.0044555664062 435.7452392578125 848.963134765625 C 429.8658142089844 851.0938720703125 423.6013793945312 852.7216796875 417.1259155273438 853.8013305664062 C 410.365478515625 854.928466796875 403.126708984375 855.5 395.6108093261719 855.5 Z" stroke="none"/>
      <path d="M 395.6108093261719 1 C 382.152587890625 1 368.5803527832031 1.741455078125 355.2711486816406 3.20379638671875 C 342.1546020507812 4.6448974609375 328.9748229980469 6.82098388671875 316.0975952148438 9.6717529296875 C 303.3869323730469 12.48577880859375 290.6657104492188 16.0244140625 278.2872314453125 20.18975830078125 C 266.0469360351562 24.30865478515625 253.8507080078125 29.13800048828125 242.037353515625 34.54364013671875 C 218.6569213867188 45.242431640625 196.1060180664062 58.48480224609375 175.0111694335938 73.90301513671875 C 154.1149291992188 89.17608642578125 134.464599609375 106.7164306640625 116.6061401367188 126.037109375 C 98.746337890625 145.3590087890625 82.5316162109375 166.6204223632812 68.412353515625 189.2307739257812 C 54.15692138671875 212.05908203125 41.91290283203125 236.4638671875 32.02044677734375 261.7672119140625 C 21.9447021484375 287.539306640625 14.20623779296875 314.5095825195312 9.02001953125 341.9288940429688 C 6.38348388671875 355.8680114746094 4.37091064453125 370.1346740722656 3.03814697265625 384.3328857421875 C 1.6856689453125 398.739990234375 1.00006103515625 413.4317626953125 1.00006103515625 428 C 1.00006103515625 442.5682373046875 1.6856689453125 457.260009765625 3.03814697265625 471.6671142578125 C 4.37091064453125 485.8653259277344 6.38348388671875 500.1319885253906 9.02001953125 514.0711059570312 C 14.20623779296875 541.490478515625 21.9447021484375 568.460693359375 32.02044677734375 594.2327880859375 C 41.91290283203125 619.5361328125 54.15692138671875 643.94091796875 68.412353515625 666.7692260742188 C 82.5316162109375 689.3795776367188 98.746337890625 710.6409912109375 116.6061401367188 729.962890625 C 134.464599609375 749.2835693359375 154.1149291992188 766.8239135742188 175.0111694335938 782.0969848632812 C 196.1060180664062 797.5151977539062 218.6569213867188 810.757568359375 242.037353515625 821.4563598632812 C 253.8507080078125 826.8619995117188 266.0469360351562 831.6913452148438 278.2872314453125 835.8102416992188 C 290.6657104492188 839.9755859375 303.3869323730469 843.5142211914062 316.0975952148438 846.3282470703125 C 328.9748229980469 849.1790161132812 342.1546020507812 851.3551025390625 355.2711486816406 852.7962036132812 C 368.5803527832031 854.258544921875 382.152587890625 855 395.6108093261719 855 C 403.0992431640625 855 410.3103637695312 854.4307861328125 417.043701171875 853.30810546875 C 423.4892578125 852.2335815429688 429.7240295410156 850.6134643554688 435.5749206542969 848.4931030273438 C 446.4438171386719 844.5541381835938 456.3520202636719 838.8324584960938 465.8656921386719 831.00146484375 C 483.726806640625 816.29931640625 497.6614685058594 796.16552734375 512.4144897460938 774.8495483398438 C 520.2626953125 763.5098876953125 528.3782958984375 751.7841186523438 537.4701538085938 740.3095703125 C 547.7634887695312 727.3185424804688 557.901611328125 716.4833374023438 568.463623046875 707.1845703125 C 587.225830078125 690.6663208007812 607.438720703125 675.0087890625 628.83837890625 658.431884765625 C 668.0635986328125 628.0465698242188 708.6243896484375 596.6267700195312 739.1390380859375 559.781005859375 C 747.0128173828125 550.2734375 754.025146484375 540.6121826171875 759.9813842773438 531.0655517578125 C 766.3629150390625 520.8370361328125 771.7894897460938 510.3304443359375 776.1100463867188 499.8374328613281 C 780.6875 488.7210083007812 784.1914672851562 477.2152099609375 786.5247802734375 465.6395568847656 C 788.977783203125 453.4697875976562 790.2215576171875 440.8059997558594 790.2215576171875 428 C 790.2215576171875 413.4317626953125 789.5359497070312 398.739990234375 788.1834716796875 384.3328857421875 C 786.8507080078125 370.1346740722656 784.838134765625 355.8680114746094 782.2015991210938 341.9288940429688 C 777.015380859375 314.5095825195312 769.2769165039062 287.539306640625 759.201171875 261.7672119140625 C 749.3087158203125 236.4638671875 737.064697265625 212.05908203125 722.8092651367188 189.2307739257812 C 708.6900634765625 166.6204223632812 692.4752197265625 145.3590087890625 674.615478515625 126.037109375 C 656.7570190429688 106.7164306640625 637.106689453125 89.17608642578125 616.21044921875 73.90301513671875 C 595.1156005859375 58.48480224609375 572.564697265625 45.242431640625 549.1842651367188 34.54364013671875 C 537.3709106445312 29.13800048828125 525.1746826171875 24.30865478515625 512.934326171875 20.18975830078125 C 500.555908203125 16.0244140625 487.8346862792969 12.48577880859375 475.1240234375 9.6717529296875 C 462.2467956542969 6.82098388671875 449.0670166015625 4.6448974609375 435.9504699707031 3.20379638671875 C 422.6412658691406 1.741455078125 409.0690307617188 1 395.6108093261719 1 M 395.6108093261719 0 C 614.1005859375 0 791.2215576171875 191.6221313476562 791.2215576171875 428 C 791.2215576171875 562.0262451171875 658.4459228515625 629.2969970703125 569.1243896484375 707.9351196289062 C 501.2335815429688 767.7059936523438 490.2169189453125 856 395.6108093261719 856 C 177.1210327148438 856 6.103515625e-05 664.3778686523438 6.103515625e-05 428 C 6.103515625e-05 191.6221313476562 177.1210327148438 0 395.6108093261719 0 Z" stroke="none" fill="#707070"/>
    </g>
  </g>
</svg>
