<svg xmlns="http://www.w3.org/2000/svg" width="817" height="675" viewBox="0 0 817 675"><g transform="translate(-1050 -362)"><path d="M82,0H200a82,82,0,0,1,82,82V248a0,0,0,0,1,0,0H82A82,82,0,0,1,0,166V82A82,82,0,0,1,82,0Z" transform="translate(1050 362)" fill="#200e32"/><path d="M62,0H260a62,62,0,0,1,62,62v62a0,0,0,0,1,0,0H62A62,62,0,0,1,0,62v0A62,62,0,0,1,62,0Z" transform="translate(1372 362)" fill="#f48924"/><path d="M62,0H220a62,62,0,0,1,62,62v62a0,0,0,0,1,0,0H62A62,62,0,0,1,0,62v0A62,62,0,0,1,62,0Z" transform="translate(1867 505) rotate(90)" fill="#477dee"/><rect width="322" height="284" rx="45" transform="translate(1372 539)" fill="#18b5b5"/><path d="M0,0H92a72,72,0,0,1,72,72v0a72,72,0,0,1-72,72H72A72,72,0,0,1,0,72V0A0,0,0,0,1,0,0Z" transform="translate(1530 885)" fill="rgba(244,137,36,0.66)"/><path d="M44,0H227a44,44,0,0,1,44,44v0a44,44,0,0,1-44,44H0a0,0,0,0,1,0,0V44A44,44,0,0,1,44,0Z" transform="translate(1061 699)" fill="#f85a40"/><path d="M72,0h92a0,0,0,0,1,0,0V72a72,72,0,0,1-72,72H72A72,72,0,0,1,0,72v0A72,72,0,0,1,72,0Z" transform="translate(1061 885)" fill="rgba(44,61,79,0.63)"/><rect width="183" height="161" rx="45" transform="translate(1281 876)" fill="#f85a40" opacity="0.68"/></g></svg>